<?xml version="1.0" standalone="no"?>
<!DOCTYPE svg PUBLIC "-//W3C//DTD SVG 20010904//EN"
 "http://www.w3.org/TR/2001/REC-SVG-20010904/DTD/svg10.dtd">
<svg version="1.0" xmlns="http://www.w3.org/2000/svg"
 width="328.000000pt" height="282.000000pt" viewBox="0 0 328.000000 282.000000"
 preserveAspectRatio="xMidYMid meet">

<g transform="translate(0.000000,282.000000) scale(0.100000,-0.100000)"
fill="#98C223" stroke="none">
<path d="M1445 2189 c-80 -12 -177 -44 -245 -80 -91 -49 -99 -58 -120 -139
-11 -41 -20 -79 -20 -83 0 -5 17 5 38 22 61 48 181 108 262 131 43 12 120 24
180 27 102 5 108 5 175 -25 74 -32 206 -72 240 -72 11 0 -7 13 -40 28 -33 16
-89 53 -125 82 -120 97 -219 129 -345 109z"/>
<path d="M1287 1915 c-42 -8 -113 -29 -156 -45 l-79 -31 -36 -147 c-20 -81
-36 -153 -36 -159 0 -7 36 14 81 47 228 169 454 213 632 124 26 -14 47 -21 47
-16 0 17 -61 103 -100 141 -89 86 -203 114 -353 86z"/>
<path d="M1120 1535 c-101 -28 -160 -56 -165 -79 -26 -114 -33 -146 -29 -146
2 0 28 13 57 29 121 68 299 97 414 68 34 -9 101 -39 150 -67 82 -47 193 -90
232 -90 9 0 -10 11 -41 24 -69 28 -136 77 -206 151 -31 31 -81 69 -115 87 -54
27 -74 32 -152 35 -58 2 -109 -3 -145 -12z"/>
<path d="M892 1048 c3 -30 6 -33 41 -36 28 -2 37 0 37 12 0 9 -4 16 -9 16 -5
0 -13 9 -16 20 -4 13 -15 20 -31 20 -22 0 -25 -4 -22 -32z"/>
<path d="M990 1060 c0 -15 7 -20 25 -20 30 0 30 0 4 -105 l-21 -85 -38 0 c-24
0 -40 -5 -44 -15 -4 -13 10 -15 93 -15 79 0 100 3 105 15 4 12 -3 15 -30 15
-33 0 -36 2 -30 23 3 12 13 54 22 94 17 72 18 72 53 75 25 2 37 8 39 21 3 15
-6 17 -87 17 -84 0 -91 -1 -91 -20z"/>
<path d="M1185 963 c-15 -65 -30 -126 -33 -135 -3 -13 2 -18 17 -18 11 0 21 4
21 9 0 6 17 11 37 13 43 3 63 32 68 96 1 21 7 48 12 62 6 14 14 40 18 58 l7
32 -59 0 -59 0 -29 -117z m90 55 c-9 -42 -13 -48 -31 -48 -12 0 -14 7 -9 33 9
41 13 47 31 47 12 0 14 -7 9 -32z m-25 -92 c0 -29 -20 -66 -35 -66 -12 0 -15
6 -10 23 4 12 9 30 11 40 6 20 34 23 34 3z"/>
<path d="M1346 1063 c-3 -10 -15 -61 -27 -113 -12 -52 -28 -102 -35 -111 -21
-23 -17 -31 13 -27 23 2 29 10 39 43 9 33 16 41 39 43 22 3 27 0 21 -13 -3 -9
-6 -23 -6 -31 0 -8 -7 -14 -15 -14 -8 0 -15 -7 -15 -15 0 -18 43 -20 57 -2 6
6 24 67 40 135 l31 122 -69 0 c-56 0 -69 -3 -73 -17z m82 -35 c-4 -30 -48 -39
-48 -10 0 24 8 32 32 32 14 0 19 -6 16 -22z m-15 -78 c-3 -13 -14 -20 -29 -20
-17 0 -24 6 -24 20 0 15 7 20 29 20 24 0 28 -3 24 -20z"/>
<path d="M1650 1070 c0 -6 -26 -10 -59 -10 -43 0 -60 -4 -65 -15 -4 -12 5 -15
54 -15 33 0 60 -4 60 -10 0 -6 -26 -10 -59 -10 l-59 0 -21 -85 c-26 -103 -26
-105 -2 -105 15 0 22 15 37 78 l19 77 38 3 c20 2 37 2 37 0 0 -2 -9 -37 -20
-78 -24 -93 -25 -92 2 -88 18 2 25 16 42 83 20 78 22 80 54 83 37 4 38 0 19
-73 -10 -39 -18 -51 -35 -53 -37 -6 -27 -32 12 -32 42 0 50 10 71 90 9 36 18
73 21 83 5 15 -2 17 -50 17 -31 0 -56 5 -56 10 0 6 27 10 60 10 47 0 60 3 60
15 0 12 -13 15 -55 15 -30 0 -55 5 -55 10 0 6 -11 10 -25 10 -14 0 -25 -4 -25
-10z"/>
<path d="M1866 1072 c-2 -4 -18 -60 -34 -125 -35 -136 -33 -140 55 -135 46 2
59 7 61 21 3 14 -4 17 -43 17 -39 0 -46 3 -43 18 3 14 16 18 67 20 l64 3 -6
-30 c-8 -37 16 -54 66 -49 41 4 52 38 13 38 -19 0 -26 5 -26 20 0 16 7 20 30
20 29 0 51 23 36 37 -4 4 -56 6 -116 5 -64 0 -110 3 -110 8 0 6 46 10 108 10
59 0 112 4 118 8 12 7 34 75 34 105 0 15 -13 17 -134 17 -74 0 -137 -4 -140
-8z m224 -41 c0 -36 -12 -41 -105 -41 l-92 0 5 25 c4 25 6 25 98 25 52 0 94
-4 94 -9z"/>
<path d="M2260 1038 c-6 -24 -13 -48 -15 -55 -2 -6 -23 -13 -47 -15 -31 -2
-44 -8 -46 -20 -3 -15 4 -18 38 -18 39 0 42 -2 36 -22 -3 -13 -9 -40 -12 -60
-6 -34 -4 -38 14 -38 17 0 24 10 32 43 6 23 13 50 16 60 5 14 18 17 85 17 72
0 79 2 79 20 0 18 -7 20 -75 20 -41 0 -75 3 -75 8 1 23 22 31 90 34 62 2 75 6
78 21 3 15 -6 17 -73 17 -64 0 -76 2 -71 15 4 11 -1 15 -19 15 -20 0 -26 -7
-35 -42z"/>
<path d="M870 972 c0 -36 16 -52 52 -52 30 0 40 26 13 36 -8 4 -15 12 -15 19
0 12 -21 25 -41 25 -5 0 -9 -13 -9 -28z"/>
<path d="M882 885 c-7 -14 -23 -30 -37 -35 -37 -14 -30 -30 13 -30 34 0 41 4
60 39 27 48 27 51 -1 51 -16 0 -28 -9 -35 -25z"/>
<path d="M2291 893 c39 -52 54 -63 85 -63 19 0 34 6 37 15 7 16 -8 29 -22 21
-4 -3 -19 6 -31 19 -29 31 -92 37 -69 8z"/>
</g>
</svg>
